<?xml version="1.0" encoding="UTF-8"?>
<svg version="1.1" xmlns="http://www.w3.org/2000/svg" width="1024" height="1024">
<path d="M0 0 C337.92 0 675.84 0 1024 0 C1024 337.92 1024 675.84 1024 1024 C686.08 1024 348.16 1024 0 1024 C0 686.08 0 348.16 0 0 Z " fill="#FEFDFC" transform="translate(0,0)"/>
<path d="M0 0 C0.8125 1.625 0.8125 1.625 1 4 C-0.20957937 5.50380138 -1.42771724 7.00301916 -2.71875 8.4375 C-6.50399188 13.05364863 -6.19418774 18.36855565 -6 24 C-5.34 24 -4.68 24 -4 24 C-3.92523437 23.43152344 -3.85046875 22.86304688 -3.7734375 22.27734375 C-2.72133464 16.09881814 -0.64175907 12.23812785 4 8 C7.83916315 6.08041843 11.8221667 6.4274821 16 7 C18.62643763 7.94430619 21.17894597 8.92656953 23.75 10 C31.33372401 13.14213791 37.73514609 13.94626588 46 13 C46.66 12.67 47.32 12.34 48 12 C56.12411752 11.92449705 62.43630736 13.72185966 68.4375 19.2421875 C70.15634279 20.96627066 71.85811848 22.7075268 73.54296875 24.46484375 C83.09545303 34.63530248 83.09545303 34.63530248 95.5078125 39.61328125 C96.41273438 39.72736328 97.31765625 39.84144531 98.25 39.95898438 C100.14217878 40.19165038 102.03542209 40.41584178 103.9296875 40.63085938 C112.74766573 41.77047097 119.62809791 44.62809791 126 51 C127.90397227 53.89551462 129.48358166 56.88705064 131 60 C131.433125 60.825 131.86625 61.65 132.3125 62.5 C133.62859606 67.28580385 133.90727995 72.0947121 131.75 76.625 C131.1725 77.40875 130.595 78.1925 130 79 C129.25794687 80.2633521 128.52923758 81.53461556 127.8125 82.8125 C127.214375 83.864375 126.61625 84.91625 126 86 C130.94443023 83.9682815 130.94443023 83.9682815 135.5625 81.3125 C138.54522448 79.70641759 140.66180292 79.76710253 144 80 C145.1171875 81.734375 145.1171875 81.734375 146 84 C145.3203125 86.140625 145.3203125 86.140625 144.125 88.25 C143.73570312 88.95640625 143.34640625 89.6628125 142.9453125 90.390625 C142.47738281 91.18726563 142.47738281 91.18726563 142 92 C144.71224618 90.38731308 147.37352812 88.75098126 150 87 C157.6891947 85.9649161 163.57912091 87.59810617 169.9375 92.0625 C175.27208658 95.43744253 181.06658682 96.11125798 187.24023438 96.58105469 C195.54876028 97.23859128 201.22926179 98.91592255 208 104 C209.536068 105.04990507 211.07770062 106.09171872 212.625 107.125 C213.35203125 107.62 214.0790625 108.115 214.828125 108.625 C216.95708863 109.97283309 219.09399289 111.05942004 221.375 112.125 C224.46995035 113.60786886 226.30490724 114.90894849 228 118 C230.36316554 125.08949662 229.02697573 131.58930985 226.3359375 138.421875 C224.25764096 142.43262271 221.39991377 145.09574564 218 148 C206.82903152 158.1212468 206.82903152 158.1212468 202.6875 171.6875 C201.69036798 189.27174328 195.3164534 207.16451239 183.2734375 220.21484375 C178.74983785 223.7668799 173.42099644 224.35284244 167.875 225.3125 C157.80693612 227.23643671 148.22718569 230.32363019 140.6328125 237.49609375 C137.92593445 241.64707181 138.20359557 245.83492858 138.13671875 250.67578125 C137.72232251 260.75152992 128.92367064 269.3417736 122 276 C122 275.01 122 274.02 122 273 C121.34 273 120.68 273 120 273 C119.79375 273.825 119.5875 274.65 119.375 275.5 C117.91169054 279.22478771 116.10019283 281.73737752 113.640625 284.84765625 C111.94380151 287.07372707 110.4811862 289.37620423 109 291.75 C105.77925598 296.6529699 102.63109136 299.12296955 97 301 C90.65875096 301.51765298 85.50268114 301.56930669 80 298 C81.01482408 300.18577494 81.98405044 301.98106242 83.54296875 303.83203125 C86.08575113 307.61552782 85.73373827 311.61894142 85 316 C81.12153588 321.7551403 73.69915478 324.67972862 67 326 C63.60254609 326.29867727 60.2046483 326.50671824 56.80078125 326.71875 C54.0972125 326.69181513 54.0972125 326.69181513 53 328 C52.83903614 329.99595191 52.6812069 331.99261581 52.57421875 333.9921875 C52 336 52 336 50.375 337.71875 C47.28490891 339.38577283 44.80749022 339.47627701 41.3125 339.625 C37.33829541 339.45475892 37.33829541 339.45475892 34 341 C33.92851801 342.35243917 33.91600546 343.70834367 33.9375 345.0625 C33.958125 346.361875 33.97875 347.66125 34 349 C35.98 349.66 37.96 350.32 40 351 C39.9375 353.1875 39.9375 353.1875 39 356 C37.4453125 357.234375 37.4453125 357.234375 35.5625 358.4375 C31.83118125 360.84966566 31.37865802 362.77785981 30 367 C26.31911496 371.07667913 22.0178815 373.79702763 17 376 C17.30406442 379.24519666 17.56280677 380.61900552 20.06640625 382.80078125 C20.89011719 383.29964844 21.71382812 383.79851562 22.5625 384.3125 C23.38878906 384.82425781 24.21507812 385.33601563 25.06640625 385.86328125 C26.02353516 386.42595703 26.02353516 386.42595703 27 387 C26.77962168 391.21281345 26.60166332 393.36949662 23.63671875 396.4765625 C22.66347656 397.18554688 21.69023438 397.89453125 20.6875 398.625 C17.68787849 400.84367866 15.25966652 402.65275364 13.01953125 405.6484375 C10.57829764 408.49103446 8.58381991 409.10404502 5 410 C7.60648103 419.03496549 9.91493816 425.62571913 18 431 C18.60972656 431.42925781 19.21945312 431.85851562 19.84765625 432.30078125 C21.20774404 433.23644448 22.60008231 434.12505145 24 435 C20.52125788 438.71865537 18.56629147 439.87286595 13.390625 440.29296875 C8.32541956 440.22229685 4.28741227 438.41861553 -0.25 436.3125 C-1.03890625 435.97283203 -1.8278125 435.63316406 -2.640625 435.28320312 C-8.48253333 432.64348948 -11.61678277 429.88671423 -14.4375 424 C-16.17950385 420.65535261 -18.31381138 418.61731199 -21 416 C-23.06140858 412.80481669 -23.40454435 409.72159784 -24 406 C-24.350625 405.113125 -24.70125 404.22625 -25.0625 403.3125 C-26.41144676 398.54622143 -26.15761719 393.92115898 -26 389 C-24.35 388.34 -22.7 387.68 -21 387 C-21 385.35 -21 383.7 -21 382 C-22.65 381.67 -24.3 381.34 -26 381 C-24.63016497 377.83884224 -24.0109362 377.0072908 -21 375 C-20.26393501 371.43230448 -20.26393501 371.43230448 -20 368 C-19.01 368.33 -18.02 368.66 -17 369 C-17 369.99 -17 370.98 -17 372 C-16.34 371.67 -15.68 371.34 -15 371 C-12.77523357 363.84668403 -11.63116664 356.44776632 -11 349 C-11.66 349 -12.32 349 -13 349 C-13.28875 349.94875 -13.5775 350.8975 -13.875 351.875 C-15 355 -15 355 -17 357 C-18.62701195 355.37298805 -18.24940591 353.62646295 -18.3125 351.375 C-18.28791202 345.09686925 -16.69629991 339.52264554 -14.875 333.578125 C-13.66790562 328.64197119 -13.69787038 324.50052083 -14.69921875 319.52734375 C-15.07295574 315.14442809 -13.73978058 312.36233591 -11.8125 308.5625 C-5.54772599 295.07717636 -3.78244836 283.23906736 -3.50024414 268.49804688 C-3.29830878 261.54517648 -2.42256915 255.26020108 -0.5625 248.5625 C3.29506243 234.62598877 4.17765787 221.19833166 4.375 206.75 C4.40118408 205.58267334 4.42736816 204.41534668 4.4543457 203.21264648 C4.47791998 194.86041065 4.47791998 194.86041065 0 188 C-2.72935825 185.8346363 -2.72935825 185.8346363 -5.875 184.0625 C-6.44017334 183.71662842 -7.00534668 183.37075684 -7.58764648 183.0144043 C-10.53887349 181.25048518 -13.30603852 179.88527773 -16.54296875 178.671875 C-29.20807128 173.78013729 -33.27437742 163.65919755 -39 152 C-39.61913614 150.79259375 -40.24100365 149.58657875 -40.8671875 148.3828125 C-42.78239943 144.64169904 -44.61208828 140.88415914 -46.30078125 137.03515625 C-49.71247978 129.56786115 -54.01502599 124.2783224 -59.70703125 118.49609375 C-63.27818731 114.60858315 -63.26261702 111.23251835 -63.23828125 106.203125 C-62.92343844 103.29211936 -61.50016394 101.47853173 -60 99 C-60.28103095 95.27633994 -61.04003151 91.82557701 -61.875 88.1875 C-62.64132185 81.66748295 -58.77989974 76.34324665 -54.98828125 71.3515625 C-53.60178756 69.64471444 -52.20621604 67.94519218 -50.80078125 66.25390625 C-44.98334672 58.97264872 -44.27557571 51.01908244 -45 42 C-45.64280844 39.35775834 -46.42035019 36.84551198 -47.34375 34.2890625 C-48.09169546 31.68015751 -48.34057364 29.69770174 -48 27 C-46.29002943 25.81617422 -44.57423768 24.6388614 -42.81640625 23.52734375 C-40.02888669 21.18342945 -39.07027547 18.34304933 -37.82421875 14.98828125 C-37 13 -37 13 -35 11 C-32.96968617 10.63764937 -30.92419416 10.35797103 -28.875 10.125 C-20.58493562 8.95377678 -15.3847642 6.32063683 -9 1 C-5.6612615 -1.19104714 -3.82089512 -1.06135976 0 0 Z " fill="#0E71A3" transform="translate(539,344)"/>
<path d="M0 0 C4.5886021 3.16455317 8.19585173 7.36034665 10.265625 12.5625 C11.36541153 20.9589472 10.79202876 27.54180973 5.9296875 34.5703125 C3.94211148 36.94980491 1.82089218 38.81031679 -0.734375 40.5625 C-2.10770194 43.30915389 -1.85402392 45.49874068 -1.84790039 48.57275391 C-1.84782486 49.83391022 -1.84774933 51.09506653 -1.84767151 52.3944397 C-1.84256449 53.77598103 -1.83734849 55.15752196 -1.83203125 56.5390625 C-1.83016644 57.9486791 -1.82874283 59.35829634 -1.82774353 60.76791382 C-1.82392333 64.48003932 -1.81409728 68.19212578 -1.80303955 71.90423584 C-1.79281475 75.69136019 -1.78824362 79.47849083 -1.78320312 83.265625 C-1.77247458 90.69793448 -1.75540411 98.13021177 -1.734375 105.5625 C0.3542392 103.48574116 2.44123757 101.40740063 4.52734375 99.328125 C5.11543823 98.74369629 5.70353271 98.15926758 6.30944824 97.55712891 C9.9026552 93.97274428 13.38691488 90.34790112 16.6328125 86.44140625 C18.265625 84.5625 18.265625 84.5625 20.4609375 82.46484375 C24.77553041 78.36171469 24.77553041 78.36171469 26.59375 72.8984375 C26.49979238 71.04538442 26.37985868 69.19347112 26.234375 67.34375 C26.28967771 62.42180851 28.54146437 58.5594242 31.265625 54.5625 C35.12189732 50.8002831 39.05003425 48.28580199 44.515625 48.1875 C50.16528837 48.33617535 54.64570329 50.13541517 58.8046875 53.98828125 C63.07333668 58.81859479 64.71019074 63.05456816 64.515625 69.51171875 C63.77980028 75.54778091 60.90920955 79.82744286 56.265625 83.5625 C51.52971356 86.39831794 47.48982146 87.67399724 41.96875 87.7109375 C35.36359199 88.24173875 32.4238319 91.1418283 28.140625 95.9375 C27.11171143 97.02635498 27.11171143 97.02635498 26.06201172 98.13720703 C21.59562276 102.9166557 17.39135418 107.87780024 13.36328125 113.03125 C10.29541319 116.73325839 6.83925333 119.99124845 3.33203125 123.2734375 C-3.07671241 130.37272632 -1.87313468 140.89505463 -1.83203125 149.83984375 C-1.8306163 151.0063295 -1.82920135 152.17281525 -1.82774353 153.37464905 C-1.82216706 157.08312597 -1.80961884 160.79154147 -1.796875 164.5 C-1.79185696 167.0214835 -1.78729459 169.54296795 -1.78320312 172.06445312 C-1.77220533 178.23048954 -1.75549065 184.39649038 -1.734375 190.5625 C6.3957181 183.14042334 14.37271975 175.61529105 22.140625 167.8125 C23.02492188 166.93207031 23.90921875 166.05164063 24.8203125 165.14453125 C29.3109178 160.6472435 33.62154172 156.0777076 37.75537109 151.25146484 C39.72026586 149.0540607 41.91149789 147.17445403 44.140625 145.25 C48.46682626 141.01863958 49.02604222 138.11194629 49.125 132.19921875 C49.46113635 125.8966621 52.72150999 121.80005102 57.265625 117.6875 C62.62921208 113.18292491 66.4721855 112.09071554 73.453125 112.2578125 C80.84963151 113.0591007 85.12066363 116.96734751 89.8203125 122.46484375 C94.2720378 128.92586128 94.09833582 135.97367149 93.265625 143.5625 C90.90778329 150.07945304 85.89153173 154.44738774 80.015625 157.875 C74.43679818 159.26970671 68.71905133 159.51197361 63.453125 157 C59.84561582 155.37308409 58.93218106 155.36201609 55.265625 156.5625 C52.90787639 158.33661845 52.90787639 158.33661845 50.67822266 160.67993164 C49.80026031 161.55496841 48.92229797 162.43000519 48.01773071 163.33155823 C47.07143508 164.29498142 46.12542796 165.25868807 45.1796875 166.22265625 C44.19549797 167.21177574 43.21048858 168.20008006 42.22470093 169.18760681 C40.1593135 171.26063118 38.1005491 173.33993238 36.046875 175.42456055 C33.43411877 178.07665729 30.81092249 180.7180881 28.18329811 183.35544682 C25.65776065 185.89104571 23.1371237 188.43149235 20.6171875 190.97265625 C20.14513508 191.44810442 19.67308266 191.92355259 19.18672562 192.41340828 C2.53416502 208.94629432 2.53416502 208.94629432 -1.89550781 231.11938477 C-1.90047272 232.07619644 -1.90543762 233.03300812 -1.91055298 234.01881409 C-1.92514186 237.18051885 -1.93197254 240.34217337 -1.9375 243.50390625 C-1.94325584 245.71003724 -1.94901352 247.91616822 -1.95477295 250.12229919 C-1.96527481 254.74991081 -1.97112225 259.3775051 -1.97460938 264.00512695 C-1.98008057 269.91046667 -2.00408275 275.81557425 -2.03258133 281.72084141 C-2.0512877 286.28072254 -2.05641764 290.84054876 -2.05794525 295.40046501 C-2.06095622 297.57598064 -2.06893164 299.75149567 -2.08213043 301.92697334 C-2.92097036 322.29044197 -2.92097036 322.29044197 6.12109375 339.64453125 C9.45981922 342.63053162 12.94173156 345.42646997 16.43359375 348.23046875 C24.11618577 354.5566859 29.9791041 361.1954984 35.13305664 369.64428711 C37.77129764 373.94132734 40.58314151 377.16328447 44.265625 380.5625 C44.265625 381.2225 44.265625 381.8825 44.265625 382.5625 C27.04784623 382.5625 12.92504679 368.21261388 1.16015625 357.22265625 C-1.37159519 354.89590493 -3.96712291 352.69817611 -6.609375 350.5 C-11.99152201 345.75392491 -16.28562988 339.67842176 -17.734375 332.5625 C-17.82192951 330.95178237 -17.85946211 329.33794876 -17.86035156 327.72485352 C-17.86415833 326.76607803 -17.86796509 325.80730255 -17.87188721 324.81947327 C-17.87291443 323.78721115 -17.87394165 322.75494904 -17.875 321.69140625 C-17.89334234 319.48501584 -17.91291394 317.27863537 -17.93359375 315.07226562 C-17.96242408 311.60993819 -17.9843717 308.14824584 -17.98486328 304.68579102 C-17.75319887 282.17460762 -17.75319887 282.17460762 -29.16577148 263.49121094 C-29.69340938 262.92856631 -30.22104727 262.36592169 -30.76467419 261.78622723 C-36.43301204 255.76743012 -42.21606981 249.86096044 -48.03515625 243.98828125 C-48.86608323 243.14936875 -48.86608323 243.14936875 -49.71379662 242.29350853 C-52.63008256 239.35087418 -55.54977492 236.41166503 -58.47192383 233.47485352 C-60.87120983 231.06210268 -63.26295528 228.64222274 -65.64868164 226.21606445 C-68.56270166 223.25272518 -71.48881066 220.30185379 -74.42403221 217.35951805 C-75.53063456 216.24622913 -76.63299946 215.12871045 -77.73085976 214.0067997 C-79.26123562 212.44474152 -80.80670895 210.89926318 -82.35668945 209.35668945 C-83.22872513 208.47656693 -84.1007608 207.5964444 -84.9992218 206.68965149 C-91.44182989 201.67918136 -99.43083411 202.07440423 -107.234375 201.9375 C-108.33652344 201.87949219 -109.43867188 201.82148438 -110.57421875 201.76171875 C-116.69459177 201.58885002 -116.69459177 201.58885002 -121.95776367 204.31738281 C-123.82331306 206.42178064 -123.82331306 206.42178064 -125.3190918 208.63916016 C-127.61953989 211.7654203 -130.05726696 212.56531816 -133.734375 213.5625 C-139.43549384 214.29010644 -144.27007951 214.15046246 -149.13671875 210.89453125 C-155.09304792 205.92849642 -158.12796569 201.06725487 -159.171875 193.3125 C-158.48509494 187.42581378 -156.28457886 182.01225819 -151.94921875 177.84765625 C-146.36523532 173.7574773 -141.46501064 172.78798601 -134.734375 173.5625 C-128.8372256 175.40207423 -125.22200622 178.54903012 -121.734375 183.5625 C-121.734375 184.2225 -121.734375 184.8825 -121.734375 185.5625 C-120.49518311 185.53893433 -120.49518311 185.53893433 -119.23095703 185.51489258 C-116.11851388 185.46327263 -113.00629142 185.42591378 -109.89355469 185.39770508 C-107.90284595 185.37548521 -105.91233532 185.33733405 -103.921875 185.29882812 C-85.04145896 185.15579467 -74.48970893 193.18482994 -61.43847656 205.85644531 C-57.91869322 209.38026279 -54.54871338 213.04701959 -51.22338867 216.75415039 C-48.78962139 219.44967207 -46.36176191 221.95322328 -43.546875 224.25390625 C-41.27828508 226.11604048 -39.51013481 227.80947962 -37.671875 230.0625 C-32.4087202 236.25444683 -26.51513595 241.85997491 -20.734375 247.5625 C-18.59463014 243.28301028 -19.17467103 238.19620305 -19.734375 233.5625 C-22.50675159 225.59191732 -27.26589584 218.90325191 -32.734375 212.5625 C-33.43691406 211.73878906 -34.13945312 210.91507813 -34.86328125 210.06640625 C-39.29110623 205.00713492 -43.91865391 200.46347759 -49.08203125 196.15625 C-49.62730469 195.6303125 -50.17257812 195.104375 -50.734375 194.5625 C-50.734375 193.9025 -50.734375 193.2425 -50.734375 192.5625 C-51.5382666 192.25844238 -51.5382666 192.25844238 -52.35839844 191.94824219 C-55.72257574 189.98615111 -58.12413393 187.21742792 -60.75 184.390625 C-61.92975498 183.15637081 -63.11078447 181.92333382 -64.29296875 180.69140625 C-66.14644945 178.75132809 -67.9910229 176.80532722 -69.81494141 174.83740234 C-71.5830192 172.93606431 -73.38136184 171.06824988 -75.1875 169.203125 C-75.72425354 168.6084845 -76.26100708 168.01384399 -76.81402588 167.40118408 C-78.56371806 165.51858197 -78.56371806 165.51858197 -81.734375 163.5625 C-84.63567538 163.68513847 -87.02677866 164.58451276 -89.734375 165.5625 C-96.59297606 166.29735011 -101.17036011 164.31615389 -106.50390625 160.1953125 C-110.26005421 156.52141596 -110.96890196 153.64591072 -111.3125 148.45703125 C-112.42523336 140.43715432 -116.30974412 136.52384675 -122.109375 131.1875 C-122.97304688 130.3315625 -123.83671875 129.475625 -124.7265625 128.59375 C-128.04942765 125.35201036 -128.04942765 125.35201036 -131.734375 122.5625 C-134.80370145 122.86786577 -137.19073558 124.2370439 -139.921875 125.625 C-147.44145254 129.01497348 -154.03565591 127.80212737 -161.734375 125.5625 C-162.00765625 126.29855469 -162.2809375 127.03460938 -162.5625 127.79296875 C-163.66610594 130.40115746 -164.92775151 132.5191424 -166.484375 134.875 C-180.01994458 157.21365395 -182.3574429 186.3266719 -176.7890625 211.515625 C-173.64471087 225.9613067 -173.64471087 225.9613067 -166.734375 238.5625 C-164.02812433 238.78059739 -161.83698949 238.74689512 -159.171875 238.5 C-151.64497942 238.13790171 -146.52438399 239.38964313 -140.734375 244.5625 C-139.96178345 245.83407959 -139.96178345 245.83407959 -139.17358398 247.13134766 C-136.09575217 250.19901347 -134.46389462 250.18205158 -130.26094055 250.28288269 C-129.41299423 250.27589859 -128.56504791 250.26891449 -127.69140625 250.26171875 C-126.80837326 250.26887405 -125.92534027 250.27602936 -125.01554871 250.28340149 C-123.14701344 250.29117971 -121.27838735 250.28616366 -119.40991211 250.26928711 C-116.57292267 250.25017547 -113.74091201 250.2893191 -110.90429688 250.33398438 C-98.76380448 250.56699986 -98.76380448 250.56699986 -88.35473633 244.92260742 C-85.26867156 242.33221013 -82.17805113 242.81167423 -78.37890625 243.05078125 C-72.40759494 244.2062344 -68.34041547 247.30015814 -64.734375 252.125 C-61.82407218 257.36156528 -61.76505801 262.74659804 -62.734375 268.5625 C-64.90967667 274.24040604 -68.35441891 277.70082123 -73.734375 280.5625 C-78.89983073 282.62868229 -84.79931886 282.25759071 -89.859375 280.125 C-94.60954195 277.52461216 -97.31559252 273.30844442 -99.734375 268.5625 C-99.734375 267.9025 -99.734375 267.2425 -99.734375 266.5625 C-110.624375 266.5625 -121.514375 266.5625 -132.734375 266.5625 C-133.394375 269.5325 -134.054375 272.5025 -134.734375 275.5625 C-135.394375 276.5525 -136.054375 277.5425 -136.734375 278.5625 C-136.50188455 283.84335461 -131.59542288 287.27873128 -128.015625 290.6875 C-114.44324911 302.95483974 -93.30638866 314.33276737 -74.9765625 315.6796875 C-71.53824319 315.4999844 -68.81641103 314.01629058 -65.734375 312.5625 C-60.2419532 311.96332671 -55.51043393 312.8014923 -50.734375 315.5625 C-46.39923754 319.43828515 -43.20736179 323.72687278 -42.484375 329.58984375 C-42.08063149 336.97077974 -44.44655167 341.93150317 -49.234375 347.4375 C-54.32653895 351.76583936 -58.25966747 351.94817322 -64.828125 351.8046875 C-71.04331016 351.2867554 -74.53712088 348.30486039 -78.4140625 343.7265625 C-79.97948523 341.16075128 -80.36040695 338.86778034 -80.984375 335.9375 C-81.79131038 332.98546151 -81.79131038 332.98546151 -83.734375 330.5625 C-88.02435885 328.75933032 -92.25815157 327.7978119 -96.78515625 326.7890625 C-115.72477363 322.46657398 -133.90526752 309.36589467 -146.609375 295.125 C-151.33702037 290.23147234 -155.11770426 289.4818927 -161.75390625 288.890625 C-168.66135141 288.13017232 -172.9427262 283.90817112 -177.22265625 278.6953125 C-181.65339649 272.44419061 -182.52259634 266.114169 -181.734375 258.5625 C-181.07927997 256.55867991 -180.41463137 254.55791868 -179.734375 252.5625 C-179.81850722 248.69241803 -180.79888884 246.31034416 -182.921875 243.1875 C-197.07554877 221.77237621 -199.28499557 189.12902914 -194.48046875 164.609375 C-194.23425781 163.60390625 -193.98804688 162.5984375 -193.734375 161.5625 C-193.58371582 160.93150391 -193.43305664 160.30050781 -193.27783203 159.65039062 C-189.67860403 144.9768809 -183.92034765 131.60677009 -174.10546875 119.9921875 C-172.28878803 116.77288435 -172.77115873 115.05718416 -173.734375 111.5625 C-174.229375 110.5725 -174.229375 110.5725 -174.734375 109.5625 C-175.5849574 100.52202422 -175.20072317 93.03914246 -169.734375 85.5625 C-165.34476911 80.65156324 -159.85951045 77.01239957 -153.19140625 76.28515625 C-150.58001736 75.79292806 -150.58001736 75.79292806 -149.28515625 73.515625 C-148.87652344 72.62359375 -148.46789062 71.7315625 -148.046875 70.8125 C-132.17701621 39.55859442 -100.86843622 22.97988251 -69.01171875 12.31640625 C-63.04483628 10.55579914 -57.253812 9.46578836 -51.08984375 8.68359375 C-49.89182129 8.52729492 -48.69379883 8.37099609 -47.45947266 8.20996094 C-45.06806097 7.90963967 -42.67298137 7.63687831 -40.27490234 7.39550781 C-32.29455153 6.41568719 -28.24470109 4.33345559 -22.734375 -1.4375 C-15.49425265 -5.81967932 -6.98151422 -3.86398271 0 0 Z " fill="#0F70A2" transform="translate(466.734375,148.4375)"/>
<path d="M0 0 C1.45305023 2.25222786 2.37050725 4.62819814 3.3828125 7.1015625 C6.32190197 13.32395912 10.28172942 15.52705967 16.25 18.9375 C16.25 50.6175 16.25 82.2975 16.25 114.9375 C11.71952083 111.05423214 7.452963 107.24630942 3.3125 103 C-0.61865952 99.0091936 -4.59412016 95.18593853 -8.93359375 91.6328125 C-9.53300781 91.07335937 -10.13242187 90.51390625 -10.75 89.9375 C-11.63300781 89.13054687 -12.51601563 88.32359375 -13.42578125 87.4921875 C-17.1096206 82.96114219 -16.55386 77.51200972 -16.5 71.9375 C-16.53609375 70.87015625 -16.5721875 69.8028125 -16.609375 68.703125 C-16.609375 61.04771298 -16.609375 61.04771298 -14.20678711 57.94384766 C-12.32421875 56.3515625 -12.32421875 56.3515625 -10.4440918 55.08447266 C-7.56405494 53.13456443 -6.78327542 51.21966898 -5.75 47.9375 C-5.1405697 42.47548092 -4.79329599 36.96504938 -7.3125 31.9375 C-11.09855737 27.27773708 -13.96808845 25.34556101 -19.8125 24.48828125 C-25.37917088 24.19835048 -29.71819858 24.29154891 -34.375 27.5625 C-38.16823463 31.00362002 -40.42702894 34.11381016 -41.0234375 39.328125 C-41.23229296 44.6941037 -40.56418356 48.24719406 -37.75 52.9375 C-37.75 53.5975 -37.75 54.2575 -37.75 54.9375 C-37.110625 55.22625 -36.47125 55.515 -35.8125 55.8125 C-33.75 56.9375 -33.75 56.9375 -32.75 58.9375 C-32.67941068 60.66017199 -32.66532524 62.38531718 -32.6796875 64.109375 C-32.59901417 82.23861844 -30.24000854 92.88240147 -17.3125 105.875 C-12.93854976 110.10522034 -8.42041741 114.14233799 -3.77734375 118.07421875 C-0.912994 120.70677141 1.72871591 123.5251556 4.375 126.375 C4.86637451 126.90109863 5.35774902 127.42719727 5.86401367 127.96923828 C6.84843241 129.04359973 7.81360936 130.13586316 8.76025391 131.24365234 C10.22400252 132.97023015 10.22400252 132.97023015 11.93896484 134.47900391 C16.99677021 139.71291463 16.8596783 145.09521123 16.82327271 151.99354553 C16.77662522 154.47573396 16.70158133 156.95607212 16.625 159.4375 C16.59486606 161.13536944 16.56749629 162.83329032 16.54296875 164.53125 C16.47723404 168.66794796 16.37390793 172.80215236 16.25 176.9375 C10.79439218 173.10345163 6.22950566 169.04285512 1.8125 164.0625 C-3.30555995 158.43508624 -8.61578914 153.11534745 -14.1875 147.9375 C-14.89318115 147.27548584 -15.5988623 146.61347168 -16.32592773 145.93139648 C-19.1835637 143.25185311 -22.04251315 140.57651531 -24.94970703 137.95068359 C-38.52542251 125.67687406 -38.52542251 125.67687406 -38.875 119.0625 C-38.81505859 117.763125 -38.81505859 117.763125 -38.75390625 116.4375 C-38.74674118 111.85185689 -40.94486514 108.43690573 -43.75 104.9375 C-47.99980535 100.73688221 -51.9586021 99.63196427 -57.875 99.5 C-62.1917434 99.59732711 -65.70208534 100.44205378 -69.75 101.9375 C-71.65044131 100.23407414 -73.54528874 98.52502883 -75.4375 96.8125 C-75.96794922 96.338125 -76.49839844 95.86375 -77.04492188 95.375 C-80.6310232 92.118908 -83.68138015 88.68270791 -86.75 84.9375 C-87.513125 84.339375 -88.27625 83.74125 -89.0625 83.125 C-91.0399932 80.56158289 -90.89758274 79.93360161 -90.75 76.8125 C-90.4840224 70.34392483 -92.41313526 64.73973609 -96.57421875 59.75 C-98.2467372 58.06730396 -99.96567905 56.49859988 -101.75 54.9375 C-98.91941063 48.52054676 -95.5606932 44.07409661 -90.5625 39.1875 C-89.8605249 38.49648193 -89.1585498 37.80546387 -88.43530273 37.09350586 C-73.52747388 22.78099796 -21.91888547 -13.30789475 0 0 Z " fill="#FCFCFB" transform="translate(431.75,173.0625)"/>
<path d="M0 0 C6.25397712 -0.30401278 11.91023774 0.82326109 18 2.1875 C19.53575684 2.53131714 19.53575684 2.53131714 21.10253906 2.88208008 C53.7486441 10.37526088 82.58581622 28.14205326 100.83398438 56.80053711 C102.52495618 59.50527475 104.12158915 62.22908101 105.6171875 65.046875 C107.93405381 69.78671192 107.93405381 69.78671192 111.93359375 72.9140625 C113.98748455 73.40089843 113.98748455 73.40089843 116.05078125 73.6640625 C121.85871773 74.66502951 125.72266499 79.48259229 129 84 C132.51710346 90.06397149 133.00091086 96.07334251 132 103 C130.8456199 105.66634597 129.47945835 108.11273569 128.05859375 110.64453125 C125.88806742 115.47415256 127.420359 119.86764193 128.75390625 124.7734375 C132.43915594 138.33942913 132.28076037 151.68535267 125.375 164.25 C120.46698838 171.79424558 113.94844105 178.02629741 105 180 C82.69470945 184.19392888 82.69470945 184.19392888 75 179 C72.65450326 175.48175489 72.42008597 174.14224306 73 170 C75.03590383 167.18041832 76.63654149 165.2839178 80.14086914 164.55419922 C82.68649172 164.38939889 85.19918725 164.35235965 87.75 164.375 C95.4481476 164.375 103.4931853 164.32224551 109.375 158.75 C113.05505197 152.52221975 114.51046339 147.79085231 114.375 140.625 C114.36919922 139.8812915 114.36339844 139.13758301 114.35742188 138.37133789 C114.2249794 132.75908795 113.2597274 128.17854195 111 123 C110.34773437 122.90203125 109.69546875 122.8040625 109.0234375 122.703125 C100.35667735 121.22031648 95.19092325 117.93743392 89.546875 111.20703125 C85.64843237 105.64485931 83.824822 98.74113097 85 92 C86.83376252 86.48930853 89.62752861 81.69737086 93 77 C80.08872625 51.2787174 58.15926103 32.10050156 31 22.5390625 C21.82261944 19.49894338 12.39909626 17.23728488 3 15 C2.49363393 13.25183142 1.99515381 11.50137737 1.5 9.75 C1.2215625 8.77546875 0.943125 7.8009375 0.65625 6.796875 C0 4 0 4 0 0 Z " fill="#0F70A2" transform="translate(488,158)"/>
<path d="M0 0 C18 0 18 0 21.94921875 3.48828125 C23.00361151 5.30427847 24.0151348 7.14537591 25 9 C26.22048803 10.87815421 27.48506742 12.72219297 28.75198364 14.56930542 C31.15160912 18.0780037 33.47498161 21.63725718 35.8125 25.1875 C41.62705444 34.00892679 47.46373715 42.79219756 53.6620636 51.35038757 C56.19549964 54.84857494 58.62479397 58.3937565 61 62 C61.01030746 61.23800797 61.02061493 60.47601593 61.03123474 59.69093323 C61.1290441 52.5244026 61.2315344 45.35796173 61.33933926 38.19157505 C61.39460165 34.5068981 61.44802679 30.82221327 61.49731445 27.13745117 C61.54490932 23.58422159 61.59725007 20.03109125 61.65294075 16.47797966 C61.6733865 15.11957189 61.69209585 13.76113688 61.70907402 12.40268135 C61.73306877 10.50610295 61.76370332 8.60961201 61.79467773 6.71313477 C61.81022202 5.63169693 61.8257663 4.55025909 61.84178162 3.43605042 C62 1 62 1 63 0 C68.94 0 74.88 0 81 0 C81 32.01 81 64.02 81 97 C75.06 97 69.12 97 63 97 C59.14809321 93.0945945 57.43855854 90.68186912 55 86 C53.52192015 83.70306426 52.02817674 81.4317457 50.49609375 79.171875 C49.60448754 77.84573428 48.71305561 76.51947638 47.82177734 75.19311523 C47.35930603 74.50667938 46.89683472 73.82024353 46.42034912 73.11300659 C44.03879431 69.57004597 41.67885808 66.01274459 39.31640625 62.45703125 C38.36016819 61.02008769 37.40378768 59.58323891 36.44726562 58.14648438 C34.98969701 55.95703446 33.53248733 53.76735033 32.07641602 51.5769043 C30.63666388 49.41122272 29.19543076 47.24653337 27.75390625 45.08203125 C27.31953751 44.42789749 26.88516876 43.77376373 26.43763733 43.09980774 C24.36740652 39.99426987 22.2412854 36.98838054 20 34 C19.67 54.79 19.34 75.58 19 97 C12.73 97 6.46 97 0 97 C0 64.99 0 32.98 0 0 Z " fill="#0E6FA1" transform="translate(212,783)"/>
<path d="M0 0 C1.17175781 0.63228516 1.17175781 0.63228516 2.3671875 1.27734375 C3.29273438 1.77105469 4.21828125 2.26476562 5.171875 2.7734375 C11.9197141 6.60613364 11.9197141 6.60613364 14.3671875 10.27734375 C11.7271875 14.89734375 9.0871875 19.51734375 6.3671875 24.27734375 C5.0678125 23.53484375 3.7684375 22.79234375 2.4296875 22.02734375 C0.74347723 21.10830678 -0.94403994 20.19166386 -2.6328125 19.27734375 C-3.32890625 18.87386719 -4.025 18.47039063 -4.7421875 18.0546875 C-11.41939769 14.55291749 -18.22345506 14.35343854 -25.6328125 15.27734375 C-28.91825425 16.52838385 -31.02249989 18.05671853 -32.6328125 21.27734375 C-33.09969859 25.40150426 -33.16560303 27.51367732 -30.7578125 30.96484375 C-24.88929065 35.30754992 -18.26606996 37.12528358 -11.31494141 39.08129883 C1.42749906 42.67784364 10.36175241 46.7196644 17.3046875 58.58984375 C19.5846743 66.50273913 19.25503421 74.92054291 15.3671875 82.27734375 C9.94683064 90.20640295 2.8027353 95.26466891 -6.6328125 97.27734375 C-17.84116558 98.1402572 -29.50083348 98.66669429 -39.6328125 93.27734375 C-41.07720703 92.57158203 -41.07720703 92.57158203 -42.55078125 91.8515625 C-47.99393393 89.06886754 -51.16804626 86.74210999 -55.6328125 82.27734375 C-52.6628125 77.65734375 -49.6928125 73.03734375 -46.6328125 68.27734375 C-44.5290625 69.51484375 -42.4253125 70.75234375 -40.2578125 72.02734375 C-31.35247679 77.13557481 -23.23739745 81.77194968 -12.6328125 80.27734375 C-8.67817178 79.17718054 -5.21193244 77.5728859 -2.6328125 74.27734375 C-1.08256786 71.17685447 -1.34289235 68.69840157 -1.6328125 65.27734375 C-4.51982996 60.61424447 -7.26997596 59.32057509 -12.4453125 57.77734375 C-13.42685303 57.47171509 -13.42685303 57.47171509 -14.42822266 57.15991211 C-16.49215347 56.51736761 -18.56153679 55.89575846 -20.6328125 55.27734375 C-32.95055395 51.56445432 -43.88636694 48.00929823 -50.6328125 36.27734375 C-53.87505577 28.02436087 -53.20564646 21.03971447 -50.0234375 12.9609375 C-41.08411545 -4.28994522 -16.48848969 -7.40138275 0 0 Z " fill="#0F6FA1" transform="translate(645.6328125,784.72265625)"/>
<path d="M0 0 C6.6009565 5.97790463 9.5581274 12.54509535 10.04370117 21.3515625 C10.22685423 28.3206613 10.08662294 35.28155079 9.9375 42.25 C9.90736308 44.70048807 9.87999388 47.15101184 9.85546875 49.6015625 C9.78977066 55.56859827 9.68644941 61.53390159 9.5625 67.5 C3.6225 67.5 -2.3175 67.5 -8.4375 67.5 C-8.7675 65.85 -9.0975 64.2 -9.4375 62.5 C-10.35982422 63.13228516 -10.35982422 63.13228516 -11.30078125 63.77734375 C-12.10902344 64.32519531 -12.91726563 64.87304688 -13.75 65.4375 C-14.95076172 66.25541016 -14.95076172 66.25541016 -16.17578125 67.08984375 C-22.43102719 70.98991937 -31.28236771 70.29594957 -38.4375 69.5 C-44.45823832 67.73049032 -49.09432406 64.93266091 -52.4375 59.5 C-52.79070313 58.92894531 -53.14390625 58.35789062 -53.5078125 57.76953125 C-55.7894359 52.19968589 -55.29389991 44.76149907 -53.78515625 39.015625 C-50.69235088 32.16632211 -45.37415276 28.04188086 -38.484375 25.34375 C-32.17292076 23.12611279 -26.37790079 23.03894621 -19.75 23.25 C-18.65494141 23.26804687 -17.55988281 23.28609375 -16.43164062 23.3046875 C-13.76596538 23.35124951 -11.1022336 23.41661683 -8.4375 23.5 C-8.87835937 21.59347656 -8.87835937 21.59347656 -9.328125 19.6484375 C-9.49344727 18.93349121 -9.65876953 18.21854492 -9.82910156 17.48193359 C-10.71820608 14.58556503 -11.99923962 13.26096583 -14.4375 11.5 C-20.27192685 8.78631309 -26.19702319 8.52961331 -32.3203125 10.36328125 C-34.20991405 11.05613515 -36.09003706 11.77569674 -37.95703125 12.52734375 C-40.1143876 13.37329923 -42.17941314 13.99995746 -44.4375 14.5 C-45.30596831 12.75705322 -46.15680627 11.00531337 -47 9.25 C-47.47566406 8.27546875 -47.95132813 7.3009375 -48.44140625 6.296875 C-49.4375 3.5 -49.4375 3.5 -49.33984375 1.2734375 C-47.48139572 -2.37909673 -43.10276384 -3.21374281 -39.4375 -4.5 C-26.43498884 -8.72344341 -11.60510531 -7.457273 0 0 Z " fill="#0F6FA0" transform="translate(570.4375,812.5)"/>
<path d="M0 0 C7.7925452 5.30839417 13.07978382 13.9117025 15.3125 23.02734375 C15.79929001 26.04456472 15.87861931 28.90946607 15.87109375 31.96484375 C15.87496094 33.55039062 15.87496094 33.55039062 15.87890625 35.16796875 C15.74609375 37.71484375 15.74609375 37.71484375 14.74609375 38.71484375 C13.14998393 38.8081808 11.54975947 38.83229747 9.95092773 38.82836914 C8.92994492 38.82829361 7.9089621 38.82821808 6.85704041 38.82814026 C5.74663895 38.82297897 4.63623749 38.81781769 3.4921875 38.8125 C2.36160416 38.81108505 1.23102081 38.8096701 0.06617737 38.80821228 C-3.5613769 38.80259394 -7.18887049 38.79003833 -10.81640625 38.77734375 C-13.26887932 38.77233111 -15.72135335 38.7677678 -18.17382812 38.76367188 C-24.2005417 38.75261855 -30.22721964 38.73586259 -36.25390625 38.71484375 C-35.79808116 40.15527365 -35.33591081 41.59369655 -34.87109375 43.03125 C-34.61440918 43.83248291 -34.35772461 44.63371582 -34.09326172 45.45922852 C-32.64013581 49.36424023 -30.76656151 51.97427295 -27.00390625 53.81640625 C-19.59966544 56.23540538 -12.13282015 55.50658402 -5.19140625 52.15234375 C-3.90556641 51.43884766 -3.90556641 51.43884766 -2.59375 50.7109375 C-0.25390625 49.71484375 -0.25390625 49.71484375 1.84765625 49.890625 C3.99193304 50.82157645 5.3755371 51.84443189 7.05859375 53.46484375 C7.59097656 53.9546875 8.12335938 54.44453125 8.671875 54.94921875 C9.74609375 56.71484375 9.74609375 56.71484375 9.6953125 59.22265625 C7.88648328 63.97176343 3.08474424 65.54551851 -1.25390625 67.71484375 C-1.92421875 68.0603125 -2.59453125 68.40578125 -3.28515625 68.76171875 C-11.45492796 72.19821003 -22.60215256 72.07034565 -31.13671875 70.0234375 C-33.36245751 69.09669261 -35.24988904 68.05085523 -37.25390625 66.71484375 C-37.93453125 66.30234375 -38.61515625 65.88984375 -39.31640625 65.46484375 C-47.40795032 60.07048104 -52.66846754 52.15253114 -54.8203125 42.703125 C-56.53406949 30.89209708 -55.64937126 20.5002426 -49.00390625 10.46484375 C-36.93206897 -5.64777588 -17.78810974 -10.1426137 0 0 Z " fill="#0F6FA1" transform="translate(361.25390625,811.28515625)"/>
<path d="M0 0 C2.97922593 -0.02683987 5.95821295 -0.04676037 8.9375 -0.0625 C9.78763672 -0.07087891 10.63777344 -0.07925781 11.51367188 -0.08789062 C12.32255859 -0.09111328 13.13144531 -0.09433594 13.96484375 -0.09765625 C14.7137085 -0.10289307 15.46257324 -0.10812988 16.23413086 -0.11352539 C18 0 18 0 19 1 C19.10690821 2.50787147 19.14620619 4.02061375 19.15771484 5.53222656 C19.16797699 6.49702942 19.17823914 7.46183228 19.18881226 8.45587158 C19.19611359 9.50684021 19.20341492 10.55780884 19.2109375 11.640625 C19.23901219 13.84766359 19.26767669 16.05469474 19.296875 18.26171875 C19.33812118 21.75536851 19.37499155 25.24888033 19.40136719 28.74267578 C19.4289762 32.10478766 19.47485817 35.46625949 19.5234375 38.828125 C19.52669037 39.8709967 19.52994324 40.91386841 19.53329468 41.98834229 C19.59619304 49.00113197 19.59619304 49.00113197 23 55 C26.17742188 57.26177773 29.10281947 57.29799301 32.9375 57.3125 C33.95714844 57.32925781 34.97679687 57.34601562 36.02734375 57.36328125 C40.24142004 56.84828901 42.79090994 55.34461021 45.61825562 52.20036316 C47.25230476 49.5982165 47.38775708 48.115771 47.41650391 45.0637207 C47.43307037 44.08623367 47.44963684 43.10874664 47.46670532 42.10163879 C47.46995819 41.0536058 47.47321106 40.00557281 47.4765625 38.92578125 C47.49993179 37.30641914 47.49993179 37.30641914 47.52377319 35.65434265 C47.57130847 32.20706894 47.59906993 28.75999827 47.625 25.3125 C47.66143857 21.85443212 47.70199031 18.39648068 47.74765015 14.93852234 C47.77496777 12.78625792 47.7962791 10.63390775 47.81118774 8.48152161 C47.82658096 7.02947578 47.82658096 7.02947578 47.84228516 5.5480957 C47.84878082 4.6919014 47.85527649 3.83570709 47.86196899 2.9535675 C48 1 48 1 49 0 C54.94 0 60.88 0 67 0 C67 24.09 67 48.18 67 73 C61.06 73 55.12 73 49 73 C48.505 69.535 48.505 69.535 48 66 C47.49210937 66.48210937 46.98421875 66.96421875 46.4609375 67.4609375 C45.77257812 68.09257813 45.08421875 68.72421875 44.375 69.375 C43.70210938 70.00148438 43.02921875 70.62796875 42.3359375 71.2734375 C35.50862365 76.31971295 27.09416927 75.6666792 19 75 C12.69868799 73.5756691 8.72812072 70.24887048 4.5078125 65.48828125 C-0.15329125 57.79625253 -0.4130762 50.11065354 -0.29296875 41.30859375 C-0.28872391 40.12274185 -0.28447906 38.93688995 -0.28010559 37.71510315 C-0.26341433 33.95566374 -0.22577888 30.19677533 -0.1875 26.4375 C-0.17244086 23.87696091 -0.15875462 21.31641335 -0.14648438 18.75585938 C-0.11354207 12.50372066 -0.0634382 6.25189971 0 0 Z " fill="#0F70A1" transform="translate(387,807)"/>
<path d="M0 0 C0.804375 -0.00128906 1.60875 -0.00257813 2.4375 -0.00390625 C3.283125 -0.00003906 4.12875 0.00382813 5 0.0078125 C6.2684375 0.00201172 6.2684375 0.00201172 7.5625 -0.00390625 C8.366875 -0.00261719 9.17125 -0.00132812 10 0 C10.7425 0.00112793 11.485 0.00225586 12.25 0.00341797 C14 0.1328125 14 0.1328125 15 1.1328125 C15.10179079 2.67151544 15.13568512 4.21478206 15.1418457 5.75683594 C15.14888016 6.74165955 15.15591461 7.72648315 15.16316223 8.7411499 C15.16732651 9.81399231 15.17149078 10.88683472 15.17578125 11.9921875 C15.19898349 14.24480097 15.22310099 16.49740516 15.24804688 18.75 C15.28315831 22.31614338 15.31249674 25.88194705 15.32592773 29.44824219 C15.34139674 32.87998073 15.38160883 36.31071412 15.42578125 39.7421875 C15.42387283 40.80693298 15.42196442 41.87167847 15.41999817 42.96868896 C15.51277219 48.90873129 15.51277219 48.90873129 17.84838867 54.28222656 C22.06753955 57.91108889 26.7331592 57.46540275 32.046875 57.4140625 C36.96530247 56.94564084 39.55162003 54.88278371 42.62036133 51.17504883 C44.70709954 46.57358981 44.4805323 42.14289144 44.51171875 37.14453125 C44.52966995 36.08619583 44.54762115 35.02786041 44.56611633 33.93745422 C44.62019491 30.56511388 44.6541079 27.1929149 44.6875 23.8203125 C44.72067516 21.5305793 44.755165 19.24086475 44.79101562 16.95117188 C44.87592035 11.3451541 44.94274377 5.73917808 45 0.1328125 C50.61 0.1328125 56.22 0.1328125 62 0.1328125 C62 24.2228125 62 48.3128125 62 73.1328125 C56.39 73.1328125 50.78 73.1328125 45 73.1328125 C44.505 69.6678125 44.505 69.6678125 44 66.1328125 C43.57589844 66.53113281 43.15179687 66.92945313 42.71484375 67.33984375 C42.12832031 67.86964844 41.54179688 68.39945313 40.9375 68.9453125 C40.36902344 69.46738281 39.80054688 69.98945312 39.21484375 70.52734375 C31.47640507 76.13668819 23.1147786 76.06858444 14 75.1328125 C7.59489396 73.36136192 2.88287697 70.0634763 -0.71661377 64.45079041 C-5.00584607 56.70382736 -5.42912119 48.71254974 -5.328125 40.03515625 C-5.32625183 38.91967911 -5.32437866 37.80420197 -5.32244873 36.65492249 C-5.31576954 34.31785046 -5.30193848 31.98078882 -5.28125 29.64379883 C-5.24981832 26.04953744 -5.24024618 22.45571396 -5.234375 18.86132812 C-5.22521514 16.58593209 -5.21484263 14.31054055 -5.203125 12.03515625 C-5.19887512 10.95612534 -5.19462524 9.87709442 -5.19024658 8.7653656 C-5.18063904 7.7766597 -5.17103149 6.7879538 -5.16113281 5.76928711 C-5.15430481 4.89566025 -5.14747681 4.02203339 -5.14044189 3.12193298 C-4.88563258 -0.48700747 -3.1816885 0.00483329 0 0 Z " fill="#0F70A1" transform="translate(680,806.8671875)"/>
<path d="M0 0 C0 5.94 0 11.88 0 18 C-1.670625 18.2475 -3.34125 18.495 -5.0625 18.75 C-11.88221897 20.0193957 -16.61342133 21.8238969 -20.875 27.5625 C-23.16372004 30.96526588 -24.11490084 33.91765219 -24.20532227 38.01245117 C-24.22526749 38.81305466 -24.24521271 39.61365814 -24.26576233 40.43852234 C-24.29083107 41.72772331 -24.29083107 41.72772331 -24.31640625 43.04296875 C-24.33718735 43.9265657 -24.35796844 44.81016266 -24.37937927 45.72053528 C-24.44475754 48.54277785 -24.50370528 51.36511335 -24.5625 54.1875 C-24.60569637 56.10092106 -24.64931102 58.01433273 -24.69335938 59.92773438 C-24.80121406 64.61839572 -24.90037461 69.30912773 -25 74 C-31.27 74 -37.54 74 -44 74 C-44 49.91 -44 25.82 -44 1 C-38.06 1 -32.12 1 -26 1 C-25.67 4.96 -25.34 8.92 -25 13 C-23.700625 11.5975 -22.40125 10.195 -21.0625 8.75 C-14.30312847 2.01185099 -9.57450242 0 0 0 Z " fill="#0E6FA0" transform="translate(802,806)"/>
<path d="M0 0 C0 5.94 0 11.88 0 18 C-2.784375 18.37125 -2.784375 18.37125 -5.625 18.75 C-13.76411581 20.12724169 -18.16103573 23.2792163 -23 30 C-25.11488958 35.00699877 -25.33691864 39.55412367 -25.4140625 44.8984375 C-25.43342865 45.73339752 -25.4527948 46.56835754 -25.4727478 47.42861938 C-25.53219614 50.07731126 -25.57878894 52.72604743 -25.625 55.375 C-25.66321182 57.17840364 -25.70226539 58.98178966 -25.7421875 60.78515625 C-25.83944275 65.19000883 -25.91928553 69.59468945 -26 74 C-31.94 74 -37.88 74 -44 74 C-44 49.91 -44 25.82 -44 1 C-38.06 1 -32.12 1 -26 1 C-25.67 4.96 -25.34 8.92 -25 13 C-23.4840625 11.14375 -23.4840625 11.14375 -21.9375 9.25 C-15.46973372 1.85265597 -9.72551992 0 0 0 Z " fill="#0D6EA0" transform="translate(513,806)"/>
<path d="M0 0 C1.24040039 0.02030273 1.24040039 0.02030273 2.50585938 0.04101562 C4.5250264 0.07603008 6.54385318 0.12982438 8.5625 0.1875 C9.12964817 11.00532628 9.12964817 11.00532628 5.5625 15.1875 C-0.34952256 20.3785442 -4.26753291 20.59926123 -12.05859375 20.52734375 C-15.4375 20.1875 -15.4375 20.1875 -18.8125 18.125 C-20.86533478 14.41410635 -21.1099224 12.3714616 -20.4375 8.1875 C-15.90798208 0.21554846 -8.26262082 -0.25966335 0 0 Z " fill="#F7F9F9" transform="translate(553.4375,847.8125)"/>
<path d="M0 0 C2.61908326 1.77702767 4.16905345 3.45592819 5.76171875 6.1953125 C6.25671875 9.6603125 6.25671875 9.6603125 6.76171875 13.1953125 C-4.45828125 13.1953125 -15.67828125 13.1953125 -27.23828125 13.1953125 C-26.08921606 6.30092135 -24.17668683 3.80590101 -19.23828125 -0.8046875 C-12.97670201 -4.65796703 -6.0911041 -3.42250643 0 0 Z " fill="#FCFCFB" transform="translate(352.23828125,823.8046875)"/>
<path d="M0 0 C5.94 0 11.88 0 18 0 C18 32.01 18 64.02 18 97 C12.06 97 6.12 97 0 97 C0 96.01 0 95.02 0 94 C0.33 94.33 0.66 94.66 1 95 C6.28 95.33 11.56 95.66 17 96 C17 64.98 17 33.96 17 2 C11.72 2 6.44 2 1 2 C1 22.46 1 42.92 1 64 C0.34 63.67 -0.32 63.34 -1 63 C-1.02312737 54.93347826 -1.04091709 46.86697028 -1.05181217 38.80042362 C-1.05704014 35.05516963 -1.06413622 31.30993824 -1.07543945 27.56469727 C-1.08627141 23.95318313 -1.09227749 20.34169079 -1.09487724 16.73016167 C-1.09673094 15.34939671 -1.10035049 13.968633 -1.10573006 12.58787727 C-1.11294447 10.66024048 -1.11340809 8.73258193 -1.11352539 6.80493164 C-1.115746 5.70572891 -1.11796661 4.60652618 -1.12025452 3.47401428 C-1 1 -1 1 0 0 Z " fill="#025691" transform="translate(275,783)"/>
<path d="M0 0 C5.94 0 11.88 0 18 0 C19 1 19 1 19.12025452 3.01844788 C19.1169236 4.3474839 19.1169236 4.3474839 19.11352539 5.70336914 C19.11344986 6.70433121 19.11337433 7.70529327 19.11329651 8.73658752 C19.10813522 9.8251152 19.10297394 10.91364288 19.09765625 12.03515625 C19.0962413 13.14354355 19.09482635 14.25193085 19.09336853 15.39390564 C19.08775033 18.95013069 19.07519475 22.50629383 19.0625 26.0625 C19.05748734 28.46679597 19.05292403 30.87109292 19.04882812 33.27539062 C19.03777499 39.18361504 19.02101917 45.0918031 19 51 C17 49 17 49 16.75949097 46.97518921 C16.7661528 45.72942612 16.7661528 45.72942612 16.77294922 44.45849609 C16.77310028 43.51767181 16.77325134 42.57684753 16.77340698 41.60751343 C16.78372955 40.58976837 16.79405212 39.57202332 16.8046875 38.5234375 C16.8075174 37.48305328 16.81034729 36.44266907 16.81326294 35.37075806 C16.82448296 32.03872306 16.84959085 28.70695414 16.875 25.375 C16.88502744 23.11979554 16.8941537 20.86458688 16.90234375 18.609375 C16.92442826 13.07281371 16.95897054 7.53645201 17 2 C11.72 2 6.44 2 1 2 C1 18.17 1 34.34 1 51 C0.67 51 0.34 51 0 51 C0 34.17 0 17.34 0 0 Z " fill="#065E94" transform="translate(387,807)"/>
<path d="M0 0 C0.74886475 0.00523682 1.49772949 0.01047363 2.26928711 0.01586914 C3.07817383 0.0190918 3.88706055 0.02231445 4.72045898 0.02563477 C5.5705957 0.03401367 6.42073242 0.04239258 7.29663086 0.05102539 C8.15063477 0.05553711 9.00463867 0.06004883 9.88452148 0.06469727 C12.00108749 0.07652166 14.11761771 0.0944577 16.23413086 0.11352539 C15.90413086 0.77352539 15.57413086 1.43352539 15.23413086 2.11352539 C9.95413086 2.11352539 4.67413086 2.11352539 -0.76586914 2.11352539 C-0.76586914 19.93352539 -0.76586914 37.75352539 -0.76586914 56.11352539 C-2.67836868 52.28852631 -3.01523799 51.03995422 -3.00878906 46.99365234 C-3.01186569 45.97612381 -3.01494232 44.95859528 -3.01811218 43.91023254 C-3.01092667 42.818452 -3.00374115 41.72667145 -2.99633789 40.60180664 C-2.99587967 39.47783981 -2.99542145 38.35387299 -2.99494934 37.19584656 C-2.99193028 34.82293643 -2.98405434 32.45002822 -2.97167969 30.07714844 C-2.95338756 26.42969816 -2.95117028 22.78250118 -2.95141602 19.13500977 C-2.94650216 16.83227318 -2.94067442 14.52953832 -2.93383789 12.22680664 C-2.93272507 11.1289534 -2.93161224 10.03110016 -2.9304657 8.89997864 C-2.92408585 7.89190659 -2.91770599 6.88383453 -2.91113281 5.84521484 C-2.90732101 4.95349075 -2.90350922 4.06176666 -2.89958191 3.14302063 C-2.73040997 0.5753253 -2.5795126 0.16583345 0 0 Z " fill="#046498" transform="translate(677.765869140625,806.886474609375)"/>
<path d="M0 0 C4.67105792 1.55701931 8.08705685 4.08447373 12 7 C8.43836187 10.80726834 6.50067721 11.90159494 1.1875 12.25 C-2.81527043 12.22040465 -5.54750249 11.0714985 -9 9 C-8.01 8.67 -7.02 8.34 -6 8 C-5.67 8.33 -5.34 8.66 -5 9 C-1.16680771 9.17423601 2.26835686 8.87803368 6 8 C5.34 6.68 4.68 5.36 4 4 C3.34 4 2.68 4 2 4 C1.34 2.68 0.68 1.36 0 0 Z " fill="#0C6197" transform="translate(551,772)"/>
<path d="M0 0 C1 3 1 3 0.0625 5.75 C-1.10957612 9.33517401 -1.14988303 12.25292435 -1 16 C-0.67 15.34 -0.34 14.68 0 14 C0.66 14.33 1.32 14.66 2 15 C0.68 17.64 -0.64 20.28 -2 23 C-2.66 22.67 -3.32 22.34 -4 22 C-4.38588205 14.48244591 -3.79558608 8.03966237 -1 1 C-0.67 0.67 -0.34 0.34 0 0 Z " fill="#0E5F94" transform="translate(525,678)"/>
<path d="M0 0 C1 2 1 2 0.44140625 4.09375 C0.15136719 4.8878125 -0.13867188 5.681875 -0.4375 6.5 C-1.63616058 9.67598467 -1.63616058 9.67598467 -2 13 C-2.66 13 -3.32 13 -4 13 C-4.99 18.28 -5.98 23.56 -7 29 C-7.33 29 -7.66 29 -8 29 C-8.27589199 23.34794244 -7.3483326 18.76199858 -5.6875 13.375 C-5.47416016 12.63765625 -5.26082031 11.9003125 -5.04101562 11.140625 C-3.81252973 7.04811677 -2.41109913 3.57776001 0 0 Z " fill="#0A5C95" transform="translate(281,288)"/>
<path d="M0 0 C0.33 0 0.66 0 1 0 C1 3.3 1 6.6 1 10 C0.34 10 -0.32 10 -1 10 C-1.12375 10.721875 -1.2475 11.44375 -1.375 12.1875 C-1.9904931 14.95721894 -2.88444374 17.3970354 -4 20 C-5.08062462 16.75812614 -4.96405231 16.10290139 -4.00390625 12.98828125 C-3.77509766 12.23095703 -3.54628906 11.47363281 -3.31054688 10.69335938 C-3.06369141 9.90767578 -2.81683594 9.12199219 -2.5625 8.3125 C-2.19801758 7.11657227 -2.19801758 7.11657227 -1.82617188 5.89648438 C-1.22520262 3.92860466 -0.6136095 1.96397505 0 0 Z " fill="#0F6197" transform="translate(535,630)"/>
<path d="M0 0 C0.66 0.33 1.32 0.66 2 1 C1 4 1 4 0 5 C-0.23481693 7.18292774 -0.41363323 9.37203174 -0.5625 11.5625 C-0.68818359 13.35880859 -0.68818359 13.35880859 -0.81640625 15.19140625 C-0.87699219 16.11824219 -0.93757812 17.04507812 -1 18 C-3.48233348 14.27649978 -3.54322777 11.31433067 -3 7 C-2.19002181 4.50920001 -1.17696713 2.35393425 0 0 Z " fill="#17689C" transform="translate(576,243)"/>
<path d="M0 0 C1.65 0 3.3 0 5 0 C4.01 1.485 4.01 1.485 3 3 C2.54227937 5.73872955 2.54227937 5.73872955 2.375 8.6875 C2.30023437 9.68136719 2.22546875 10.67523437 2.1484375 11.69921875 C2.09945312 12.45847656 2.05046875 13.21773437 2 14 C-0.28062828 10.57905758 -0.21925007 9.31812778 -0.125 5.3125 C-0.10695313 4.31863281 -0.08890625 3.32476563 -0.0703125 2.30078125 C-0.04710937 1.54152344 -0.02390625 0.78226563 0 0 Z " fill="#085D94" transform="translate(513,733)"/>
<path d="M0 0 C0.99 0.33 1.98 0.66 3 1 C3.33 2.65 3.66 4.3 4 6 C3.01 5.67 2.02 5.34 1 5 C0.67 6.32 0.34 7.64 0 9 C-0.99 9 -1.98 9 -3 9 C-2.34 8.34 -1.68 7.68 -1 7 C-0.59952556 4.67724823 -0.2602896 2.34260643 0 0 Z " fill="#065A92" transform="translate(519,712)"/>
<path d="M0 0 C0.66 0.66 1.32 1.32 2 2 C1.69347955 4.9425963 1.32728846 7.34542308 0 10 C-1.98 6.535 -1.98 6.535 -4 3 C-3.01 3 -2.02 3 -1 3 C-0.67 2.01 -0.34 1.02 0 0 Z " fill="#0C669A" transform="translate(448,305)"/>
<path d="M0 0 C0 0.99 0 1.98 0 3 C-3.87417866 6.87417866 -6.38241014 8.59874358 -12 9 C-9 7 -9 7 -6.375 5.5625 C-3.70953007 4.15982726 -3.70953007 4.15982726 -3 1 C-2.01 0.67 -1.02 0.34 0 0 Z " fill="#0B5C93" transform="translate(555,297)"/>
<path d="M0 0 C-0.9520721 1.00596297 -1.91187346 2.00461563 -2.875 3 C-3.40867187 3.556875 -3.94234375 4.11375 -4.4921875 4.6875 C-6 6 -6 6 -8 6 C-8 5.01 -8 4.02 -8 3 C-7.34 3 -6.68 3 -6 3 C-6 2.01 -6 1.02 -6 0 C-2.25 -1.125 -2.25 -1.125 0 0 Z " fill="#0F649A" transform="translate(350,205)"/>
<path d="M0 0 C2.31 0 4.62 0 7 0 C5.74458443 2.51083114 4.49936512 2.87125446 2 4 C1.34 2.68 0.68 1.36 0 0 Z " fill="#06659B" transform="translate(535,261)"/>
<path d="M0 0 C0.33 0.99 0.66 1.98 1 3 C-1.475 4.485 -1.475 4.485 -4 6 C-4 5.01 -4 4.02 -4 3 C-2 1.3125 -2 1.3125 0 0 Z " fill="#0F6499" transform="translate(497,810)"/>
</svg>
